<?xml version="1.0" standalone="no"?>
<!DOCTYPE svg PUBLIC "-//W3C//DTD SVG 20010904//EN"
 "http://www.w3.org/TR/2001/REC-SVG-20010904/DTD/svg10.dtd">
<svg version="1.0" xmlns="http://www.w3.org/2000/svg"
 width="560.000000pt" height="560.000000pt" viewBox="0 0 560.000000 560.000000"
 preserveAspectRatio="xMidYMid meet">
<metadata>
Created by potrace 1.14, written by Peter Selinger 2001-2017
</metadata>
<g transform="translate(0.000000,560.000000) scale(0.100000,-0.100000)"
fill="#000000" stroke="none">
<path d="M3084 5229 c-78 -37 -201 -64 -389 -84 -345 -36 -480 -74 -635 -178
-240 -161 -360 -349 -417 -647 -14 -76 -18 -148 -18 -365 0 -286 5 -325 44
-325 29 0 39 26 56 150 40 285 140 532 259 638 23 20 79 78 124 129 l82 92
297 -6 c309 -6 690 8 782 28 68 14 88 5 141 -65 22 -30 79 -84 125 -121 115
-91 179 -163 219 -248 45 -93 61 -158 86 -347 22 -167 32 -216 53 -245 45 -60
62 58 62 425 0 246 -15 365 -62 490 -61 163 -120 237 -295 377 -65 51 -118
100 -118 108 0 9 7 32 15 52 8 19 15 48 15 64 0 37 -23 38 -105 4 -76 -31
-100 -33 -85 -6 13 26 13 58 -1 67 -6 3 -44 -10 -84 -30 -40 -20 -75 -36 -78
-36 -3 0 4 17 16 38 22 42 18 72 -10 71 -10 0 -45 -14 -79 -30z"/>
<path d="M2540 3763 c-53 -22 -64 -23 -301 -22 -176 1 -256 -2 -285 -11 -53
-18 -114 -57 -114 -74 0 -7 24 -24 53 -37 51 -23 59 -24 322 -24 238 0 276 2
317 18 26 10 57 30 68 44 23 29 27 91 8 114 -12 14 -19 13 -68 -8z"/>
<path d="M2990 3770 c-16 -31 -11 -86 10 -113 11 -14 42 -34 68 -44 41 -16 79
-18 317 -18 263 0 271 1 323 24 36 16 52 29 50 40 -2 9 -33 31 -70 50 l-68 34
-252 -2 c-246 -1 -255 0 -311 23 -55 23 -58 23 -67 6z"/>
<path d="M2219 3463 c-78 -48 -77 -160 1 -207 78 -45 180 14 180 104 0 91
-105 150 -181 103z"/>
<path d="M3259 3463 c-78 -48 -77 -160 1 -207 56 -32 130 -12 164 44 61 104
-63 226 -165 163z"/>
<path d="M2532 2628 c-26 -26 -7 -91 40 -135 52 -49 115 -68 228 -68 113 0
176 19 228 68 49 45 67 112 37 137 -23 19 -47 7 -69 -35 -31 -59 -98 -90 -196
-90 -98 0 -165 31 -196 90 -21 42 -50 55 -72 33z"/>
<path d="M2165 1920 c-192 -40 -308 -92 -392 -177 -54 -55 -93 -136 -93 -196
0 -30 -5 -34 -95 -80 -162 -83 -317 -204 -432 -337 -76 -88 -183 -246 -183
-271 0 -9 41 -60 92 -114 234 -247 537 -451 859 -579 64 -25 121 -46 127 -46
9 0 12 118 12 456 0 251 3 454 8 452 4 -2 35 -18 70 -36 l62 -32 0 -444 0
-443 78 -16 c208 -45 274 -51 517 -51 269 -1 375 11 601 69 343 88 666 254
943 484 120 99 291 276 291 300 0 25 -106 182 -183 271 -115 133 -270 254
-432 337 -90 46 -95 50 -95 80 0 18 -9 57 -21 88 -38 101 -152 193 -305 245
-60 21 -249 60 -290 60 l-24 0 0 -203 c0 -112 -5 -230 -11 -263 -36 -196 -196
-352 -397 -385 -248 -41 -495 135 -541 385 -6 33 -11 151 -11 263 l0 203 -32
-1 c-18 0 -73 -9 -123 -19z m1375 -1300 l0 -411 -25 -24 c-13 -14 -33 -25 -45
-25 -12 0 -32 11 -45 25 l-25 24 0 375 0 375 63 34 c34 19 65 35 70 36 4 0 7
-184 7 -409z"/>
</g>
</svg>
